<svg width="540" height="508" viewBox="0 0 540 508" fill="none" xmlns="http://www.w3.org/2000/svg">
<rect width="540" height="508" fill="#1E1E1E" fill-opacity="0.25"/>
<g filter="url(#filter0_f_0_1)">
<path d="M536 254C536 392.071 424.071 504 286 504C147.929 504 36 392.071 36 254C36 115.929 147.929 4 286 4C424.071 4 536 115.929 536 254Z" fill="#86A8CB"/>
<path d="M536 254C536 392.071 424.071 504 286 504C147.929 504 36 392.071 36 254C36 115.929 147.929 4 286 4C424.071 4 536 115.929 536 254Z" fill="#9C3B3B" fill-opacity="0.2"/>
</g>
<g filter="url(#filter1_d_0_1)">
<path d="M81.272 296.446C77.474 296.446 74.3793 296.798 71.988 297.501C70.5813 307.066 69.878 326.267 69.878 355.104C69.878 383.941 70.7923 405.111 72.621 418.615C79.6543 419.318 87.391 420.655 95.831 422.624L95.198 427.688C84.7887 426.563 73.465 426 61.227 426C49.1297 426 39.3533 426.563 31.898 427.688L31.054 422.413C37.384 420.444 44.136 418.967 51.31 417.982C52.8573 406.447 53.631 388.301 53.631 363.544V351.095C53.631 336.606 52.7167 318.742 50.888 297.501C48.4967 296.798 44.347 296.446 38.439 296.446C32.531 296.446 26.623 297.712 20.715 300.244C18.8863 306.152 17.4797 314.029 16.495 323.876H11.22C10.6573 308.825 8.33633 297.712 4.257 290.538L5.523 286.318C19.027 287.865 38.3687 288.639 63.548 288.639C88.868 288.639 108.28 287.865 121.784 286.318L122.628 290.538C117.986 295.461 114.821 300.314 113.133 305.097C111.586 309.88 110.601 316.139 110.179 323.876H104.904C103.638 317.827 103.005 310.161 103.005 300.877C96.9563 297.923 89.712 296.446 81.272 296.446ZM140.469 398.57L140.891 407.01V407.643C148.909 410.878 156.927 412.496 164.945 412.496C172.963 412.496 179.293 410.667 183.935 407.01C188.718 403.212 191.109 397.726 191.109 390.552C191.109 386.332 188.085 381.62 182.036 376.415C175.987 371.07 169.306 366.287 161.991 362.067C154.676 357.847 147.995 353.064 141.946 347.719C135.897 342.233 132.873 337.239 132.873 332.738C132.873 322.891 137.374 313.396 146.377 304.253C155.52 294.969 165.508 288.709 176.339 285.474C188.436 285.474 199.901 286.67 210.732 289.061V293.281C203.417 300.033 199.338 310.442 198.494 324.509H193.219C193.219 317.054 192.867 310.513 192.164 304.886C186.115 302.073 179.363 300.666 171.908 300.666C164.593 300.666 158.615 302.213 153.973 305.308C149.331 308.403 147.01 312.834 147.01 318.601C147.01 322.821 150.034 327.533 156.083 332.738C162.132 337.943 168.743 342.655 175.917 346.875C183.232 350.954 189.913 355.667 195.962 361.012C202.011 366.357 205.035 371.281 205.035 375.782C205.035 386.051 200.463 396.46 191.32 407.01C182.317 417.56 172.471 424.945 161.78 429.165C150.667 429.165 140.328 427.899 130.763 425.367C127.809 426.774 124.855 428.884 121.901 431.697L118.736 428.743C128.442 418.474 133.858 404.9 134.983 388.02H140.258V390.974L140.469 398.57ZM219.772 286.951C226.805 288.076 235.878 288.639 246.991 288.639C258.244 288.639 266.966 288.217 273.155 287.373L274.21 290.749C272.522 291.312 270.904 292.226 269.357 293.492C267.81 294.617 267.036 295.883 267.036 297.29C267.036 300.666 270.623 308.543 277.797 320.922C284.971 333.301 300.726 358.48 325.061 396.46L325.905 396.038V365.654C325.905 342.022 324.709 324.157 322.318 312.06C319.927 299.963 315.707 292.859 309.658 290.749L310.502 287.795C314.863 288.358 321.966 288.639 331.813 288.639C341.66 288.639 350.733 288.076 359.032 286.951L359.665 291.804C349.678 294.195 342.715 295.602 338.776 296.024C336.947 309.809 336.033 328.166 336.033 351.095V363.544C336.033 389.849 336.947 408.206 338.776 418.615C345.95 419.459 352.702 420.725 359.032 422.413L358.188 427.688C350.733 426.563 343.207 426 335.611 426C328.156 426 322.107 426.211 317.465 426.633C317.465 416.927 296.295 379.088 253.954 313.115L253.11 313.537V348.985C253.11 384.855 255.712 408.065 260.917 418.615C268.654 419.318 276.32 420.655 283.916 422.624L283.494 427.688C273.085 426.563 261.761 426 249.523 426C237.426 426 227.649 426.563 220.194 427.688L219.35 422.413C225.68 420.444 232.432 418.967 239.606 417.982C241.153 406.447 241.927 388.301 241.927 363.544V351.095C241.927 328.307 241.013 310.161 239.184 296.657C232.01 295.672 225.258 294.195 218.928 292.226L219.772 286.951Z" fill="white" fill-opacity="0.8" shape-rendering="crispEdges"/>
<path d="M71.988 297.501L71.7058 296.542L71.0918 296.722L70.9986 297.355L71.988 297.501ZM72.621 418.615L71.6301 418.749L71.736 419.531L72.5215 419.61L72.621 418.615ZM95.831 422.624L96.8233 422.748L96.935 421.855L96.0582 421.65L95.831 422.624ZM95.198 427.688L95.0905 428.682L96.0683 428.788L96.1903 427.812L95.198 427.688ZM31.898 427.688L30.9106 427.846L31.0672 428.825L32.0473 428.677L31.898 427.688ZM31.054 422.413L30.7569 421.458L29.9297 421.716L30.0666 422.571L31.054 422.413ZM51.31 417.982L51.446 418.973L52.1999 418.869L52.3011 418.115L51.31 417.982ZM50.888 297.501L51.8843 297.415L51.8257 296.734L51.1702 296.542L50.888 297.501ZM20.715 300.244L20.3211 299.325L19.8963 299.507L19.7597 299.948L20.715 300.244ZM16.495 323.876V324.876H17.4L17.49 323.975L16.495 323.876ZM11.22 323.876L10.2207 323.913L10.2567 324.876H11.22V323.876ZM4.257 290.538L3.29917 290.251L3.17624 290.66L3.38771 291.032L4.257 290.538ZM5.523 286.318L5.63684 285.324L4.80559 285.229L4.56517 286.031L5.523 286.318ZM121.784 286.318L122.765 286.122L122.584 285.22L121.67 285.324L121.784 286.318ZM122.628 290.538L123.356 291.224L123.71 290.848L123.609 290.342L122.628 290.538ZM113.133 305.097L112.19 304.764L112.186 304.777L112.182 304.789L113.133 305.097ZM110.179 323.876V324.876H111.126L111.178 323.93L110.179 323.876ZM104.904 323.876L103.925 324.081L104.092 324.876H104.904V323.876ZM103.005 300.877H104.005V300.252L103.444 299.978L103.005 300.877ZM81.272 295.446C77.4229 295.446 74.2234 295.801 71.7058 296.542L72.2702 298.46C74.5353 297.794 77.5251 297.446 81.272 297.446V295.446ZM70.9986 297.355C69.5796 307.005 68.878 326.279 68.878 355.104H70.878C70.878 326.255 71.5831 307.128 72.9774 297.646L70.9986 297.355ZM68.878 355.104C68.878 383.948 69.7918 405.174 71.6301 418.749L73.612 418.481C71.7929 405.048 70.878 383.934 70.878 355.104H68.878ZM72.5215 419.61C79.5035 420.308 87.1968 421.636 95.6038 423.598L96.0582 421.65C87.5852 419.673 79.8051 418.328 72.7205 417.62L72.5215 419.61ZM94.8387 422.5L94.2057 427.564L96.1903 427.812L96.8233 422.748L94.8387 422.5ZM95.3055 426.694C84.8551 425.564 73.4951 425 61.227 425V427C73.4349 427 84.7222 427.561 95.0905 428.682L95.3055 426.694ZM61.227 425C49.1057 425 39.2738 425.563 31.7487 426.699L32.0473 428.677C39.4328 427.562 49.1536 427 61.227 427V425ZM32.8854 427.53L32.0414 422.255L30.0666 422.571L30.9106 427.846L32.8854 427.53ZM31.3511 423.368C37.6239 421.416 44.3216 419.951 51.446 418.973L51.174 416.991C43.9504 417.983 37.1441 419.471 30.7569 421.458L31.3511 423.368ZM52.3011 418.115C53.8579 406.51 54.631 388.308 54.631 363.544H52.631C52.631 388.295 51.8568 406.385 50.3189 417.849L52.3011 418.115ZM54.631 363.544V351.095H52.631V363.544H54.631ZM54.631 351.095C54.631 336.568 53.7144 318.672 51.8843 297.415L49.8917 297.587C51.7189 318.811 52.631 336.645 52.631 351.095H54.631ZM51.1702 296.542C48.627 295.794 44.3478 295.446 38.439 295.446V297.446C44.3462 297.446 48.3663 297.802 50.6058 298.46L51.1702 296.542ZM38.439 295.446C32.3841 295.446 26.3425 296.744 20.3211 299.325L21.1089 301.163C26.9035 298.68 32.6779 297.446 38.439 297.446V295.446ZM19.7597 299.948C17.9031 305.946 16.4878 313.898 15.5 323.776L17.49 323.975C18.4715 314.161 19.8695 306.357 21.6703 300.54L19.7597 299.948ZM16.495 322.876H11.22V324.876H16.495V322.876ZM12.2193 323.839C11.6548 308.739 9.32632 297.43 5.12629 290.044L3.38771 291.032C7.34634 297.994 9.65985 308.911 10.2207 323.913L12.2193 323.839ZM5.21483 290.825L6.48083 286.605L4.56517 286.031L3.29917 290.251L5.21483 290.825ZM5.40916 287.311C18.9702 288.865 38.3568 289.639 63.548 289.639V287.639C38.3805 287.639 19.0838 286.865 5.63684 285.324L5.40916 287.311ZM63.548 289.639C88.8796 289.639 108.337 288.865 121.898 287.311L121.67 285.324C108.223 286.865 88.8564 287.639 63.548 287.639V289.639ZM120.803 286.514L121.647 290.734L123.609 290.342L122.765 286.122L120.803 286.514ZM121.9 289.852C117.193 294.845 113.937 299.814 112.19 304.764L114.076 305.43C115.705 300.815 118.779 296.078 123.356 291.224L121.9 289.852ZM112.182 304.789C110.597 309.686 109.605 316.04 109.18 323.822L111.178 323.93C111.597 316.239 112.574 310.074 114.084 305.405L112.182 304.789ZM110.179 322.876H104.904V324.876H110.179V322.876ZM105.883 323.671C104.636 317.714 104.005 310.123 104.005 300.877H102.005C102.005 310.199 102.64 317.94 103.925 324.081L105.883 323.671ZM103.444 299.978C97.2283 296.943 89.8265 295.446 81.272 295.446V297.446C89.5975 297.446 96.6844 298.903 102.566 301.776L103.444 299.978ZM140.469 398.57L139.469 398.598L139.47 398.609L139.47 398.62L140.469 398.57ZM140.891 407.01H141.891V406.985L141.89 406.96L140.891 407.01ZM140.891 407.643H139.891V408.318L140.517 408.57L140.891 407.643ZM183.935 407.01L184.554 407.796L184.557 407.793L183.935 407.01ZM182.036 376.415L181.374 377.164L181.384 377.173L182.036 376.415ZM161.991 362.067L161.491 362.933L161.991 362.067ZM141.946 347.719L141.274 348.46L141.284 348.468L141.946 347.719ZM146.377 304.253L145.665 303.551L145.664 303.551L146.377 304.253ZM176.339 285.474V284.474H176.193L176.053 284.516L176.339 285.474ZM210.732 289.061H211.732V288.258L210.948 288.085L210.732 289.061ZM210.732 293.281L211.41 294.016L211.732 293.719V293.281H210.732ZM198.494 324.509V325.509H199.436L199.492 324.569L198.494 324.509ZM193.219 324.509H192.219V325.509H193.219V324.509ZM192.164 304.886L193.156 304.762L193.088 304.213L192.586 303.979L192.164 304.886ZM153.973 305.308L153.418 304.476L153.973 305.308ZM175.917 346.875L175.41 347.737L175.42 347.743L175.43 347.748L175.917 346.875ZM195.962 361.012L196.624 360.263L195.962 361.012ZM191.32 407.01L190.564 406.355L190.559 406.361L191.32 407.01ZM161.78 429.165V430.165H161.97L162.147 430.095L161.78 429.165ZM130.763 425.367L131.019 424.4L130.664 424.306L130.333 424.464L130.763 425.367ZM121.901 431.697L121.219 432.428L121.908 433.071L122.591 432.421L121.901 431.697ZM118.736 428.743L118.009 428.056L117.318 428.787L118.054 429.474L118.736 428.743ZM134.983 388.02V387.02H134.047L133.985 387.953L134.983 388.02ZM140.258 388.02H141.258V387.02H140.258V388.02ZM140.258 390.974H139.258V390.988L139.258 391.002L140.258 390.974ZM139.47 398.62L139.892 407.06L141.89 406.96L141.468 398.52L139.47 398.62ZM139.891 407.01V407.643H141.891V407.01H139.891ZM140.517 408.57C148.644 411.85 156.789 413.496 164.945 413.496V411.496C157.065 411.496 149.174 409.907 141.265 406.716L140.517 408.57ZM164.945 413.496C173.108 413.496 179.682 411.634 184.554 407.795L183.316 406.225C178.904 409.701 172.818 411.496 164.945 411.496V413.496ZM184.557 407.793C189.622 403.771 192.109 397.971 192.109 390.552H190.109C190.109 397.481 187.814 402.653 183.313 406.227L184.557 407.793ZM192.109 390.552C192.109 385.867 188.778 380.897 182.688 375.657L181.384 377.173C187.391 382.342 190.109 386.797 190.109 390.552H192.109ZM182.698 375.666C176.597 370.274 169.861 365.453 162.491 361.201L161.491 362.933C168.751 367.121 175.378 371.865 181.374 377.164L182.698 375.666ZM162.491 361.201C155.231 357.013 148.605 352.269 142.608 346.97L141.284 348.468C147.385 353.86 154.121 358.681 161.491 362.933L162.491 361.201ZM142.618 346.978C136.621 341.539 133.873 336.798 133.873 332.738H131.873C131.873 337.68 135.174 342.927 141.274 348.46L142.618 346.978ZM133.873 332.738C133.873 323.226 138.213 313.97 147.09 304.955L145.664 303.551C136.536 312.823 131.873 322.556 131.873 332.738H133.873ZM147.09 304.955C156.133 295.772 165.979 289.612 176.625 286.432L176.053 284.516C165.037 287.806 154.908 294.166 145.665 303.551L147.09 304.955ZM176.339 286.474C188.37 286.474 199.762 287.663 210.516 290.037L210.948 288.085C200.039 285.676 188.502 284.474 176.339 284.474V286.474ZM209.732 289.061V293.281H211.732V289.061H209.732ZM210.054 292.546C202.483 299.535 198.349 310.232 197.496 324.449L199.492 324.569C200.327 310.652 204.352 300.531 211.41 294.016L210.054 292.546ZM198.494 323.509H193.219V325.509H198.494V323.509ZM194.219 324.509C194.219 317.024 193.866 310.44 193.156 304.762L191.172 305.01C191.869 310.585 192.219 317.083 192.219 324.509H194.219ZM192.586 303.979C186.39 301.098 179.492 299.666 171.908 299.666V301.666C179.235 301.666 185.841 303.048 191.742 305.793L192.586 303.979ZM171.908 299.666C164.456 299.666 158.269 301.242 153.418 304.476L154.528 306.14C158.961 303.184 164.73 301.666 171.908 301.666V299.666ZM153.418 304.476C148.487 307.763 146.01 312.513 146.01 318.601H148.01C148.01 313.154 150.175 309.042 154.528 306.14L153.418 304.476ZM146.01 318.601C146.01 323.286 149.341 328.256 155.431 333.496L156.735 331.98C150.728 326.811 148.01 322.356 148.01 318.601H146.01ZM155.431 333.496C161.527 338.741 168.187 343.488 175.41 347.737L176.424 346.013C169.299 341.822 162.737 337.144 156.735 331.98L155.431 333.496ZM175.43 347.748C182.684 351.794 189.307 356.465 195.3 361.761L196.624 360.263C190.52 354.868 183.779 350.115 176.404 346.002L175.43 347.748ZM195.3 361.761C201.293 367.057 204.035 371.727 204.035 375.782H206.035C206.035 370.835 202.729 365.657 196.624 360.263L195.3 361.761ZM204.035 375.782C204.035 385.735 199.607 395.921 190.564 406.355L192.076 407.665C201.32 396.999 206.035 386.366 206.035 375.782H204.035ZM190.559 406.361C181.641 416.812 171.923 424.086 161.413 428.235L162.147 430.095C173.018 425.804 182.994 418.308 192.081 407.659L190.559 406.361ZM161.78 428.165C150.743 428.165 140.491 426.908 131.019 424.4L130.507 426.334C140.165 428.89 150.591 430.165 161.78 430.165V428.165ZM130.333 424.464C127.263 425.926 124.224 428.104 121.211 430.973L122.591 432.421C125.486 429.664 128.355 427.621 131.193 426.27L130.333 424.464ZM122.583 430.966L119.418 428.012L118.054 429.474L121.219 432.428L122.583 430.966ZM119.463 429.43C129.359 418.96 134.843 405.151 135.981 388.087L133.985 387.953C132.872 404.649 127.526 417.988 118.009 428.056L119.463 429.43ZM134.983 389.02H140.258V387.02H134.983V389.02ZM139.258 388.02V390.974H141.258V388.02H139.258ZM139.258 391.002L139.469 398.598L141.469 398.542L141.258 390.946L139.258 391.002ZM219.772 286.951L219.93 285.964L218.943 285.806L218.785 286.793L219.772 286.951ZM273.155 287.373L274.11 287.075L273.857 286.268L273.02 286.382L273.155 287.373ZM274.21 290.749L274.526 291.698L275.457 291.387L275.165 290.451L274.21 290.749ZM269.357 293.492L269.945 294.301L269.968 294.284L269.99 294.266L269.357 293.492ZM277.797 320.922L276.932 321.423L277.797 320.922ZM325.061 396.46L324.219 396.999L324.704 397.757L325.508 397.354L325.061 396.46ZM325.905 396.038L326.352 396.932L326.905 396.656V396.038H325.905ZM322.318 312.06L323.299 311.866L322.318 312.06ZM309.658 290.749L308.697 290.474L308.437 291.382L309.329 291.693L309.658 290.749ZM310.502 287.795L310.63 286.803L309.777 286.693L309.541 287.52L310.502 287.795ZM359.032 286.951L360.024 286.822L359.894 285.825L358.898 285.96L359.032 286.951ZM359.665 291.804L359.898 292.777L360.773 292.567L360.657 291.675L359.665 291.804ZM338.776 296.024L338.67 295.03L337.888 295.113L337.785 295.892L338.776 296.024ZM338.776 418.615L337.791 418.788L337.92 419.521L338.659 419.608L338.776 418.615ZM359.032 422.413L360.02 422.571L360.162 421.679L359.29 421.447L359.032 422.413ZM358.188 427.688L358.039 428.677L359.019 428.825L359.176 427.846L358.188 427.688ZM317.465 426.633H316.465V427.728L317.556 427.629L317.465 426.633ZM253.954 313.115L254.796 312.575L254.31 311.819L253.507 312.221L253.954 313.115ZM253.11 313.537L252.663 312.643L252.11 312.919V313.537H253.11ZM260.917 418.615L260.02 419.057L260.268 419.56L260.827 419.611L260.917 418.615ZM283.916 422.624L284.913 422.707L284.983 421.867L284.167 421.656L283.916 422.624ZM283.494 427.688L283.387 428.682L284.406 428.792L284.491 427.771L283.494 427.688ZM220.194 427.688L219.207 427.846L219.363 428.825L220.343 428.677L220.194 427.688ZM219.35 422.413L219.053 421.458L218.226 421.716L218.363 422.571L219.35 422.413ZM239.606 417.982L239.742 418.973L240.496 418.869L240.597 418.115L239.606 417.982ZM239.184 296.657L240.175 296.523L240.073 295.77L239.32 295.666L239.184 296.657ZM218.928 292.226L217.941 292.068L217.804 292.923L218.631 293.181L218.928 292.226ZM219.614 287.938C226.72 289.075 235.851 289.639 246.991 289.639V287.639C235.906 287.639 226.891 287.077 219.93 285.964L219.614 287.938ZM246.991 289.639C258.26 289.639 267.034 289.217 273.29 288.364L273.02 286.382C266.897 287.217 258.229 287.639 246.991 287.639V289.639ZM272.201 287.671L273.256 291.047L275.165 290.451L274.11 287.075L272.201 287.671ZM273.894 289.8C272.077 290.406 270.354 291.384 268.724 292.718L269.99 294.266C271.455 293.068 272.967 292.217 274.526 291.698L273.894 289.8ZM268.769 292.683C267.064 293.923 266.036 295.456 266.036 297.29H268.036C268.036 296.31 268.556 295.311 269.945 294.301L268.769 292.683ZM266.036 297.29C266.036 298.286 266.296 299.527 266.756 300.97C267.22 302.427 267.91 304.154 268.816 306.144C270.629 310.126 273.338 315.221 276.932 321.423L278.662 320.421C275.083 314.244 272.411 309.212 270.636 305.316C269.749 303.367 269.094 301.718 268.661 300.362C268.225 298.992 268.036 297.982 268.036 297.29H266.036ZM276.932 321.423C284.119 333.825 299.886 359.023 324.219 396.999L325.903 395.921C301.565 357.937 285.823 332.776 278.662 320.421L276.932 321.423ZM325.508 397.354L326.352 396.932L325.458 395.144L324.614 395.566L325.508 397.354ZM326.905 396.038V365.654H324.905V396.038H326.905ZM326.905 365.654C326.905 342.005 325.71 324.061 323.299 311.866L321.337 312.254C323.709 324.253 324.905 342.039 324.905 365.654H326.905ZM323.299 311.866C320.9 299.731 316.589 292.108 309.987 289.805L309.329 291.693C314.825 293.61 318.953 300.194 321.337 312.254L323.299 311.866ZM310.62 291.024L311.464 288.07L309.541 287.52L308.697 290.474L310.62 291.024ZM310.374 288.787C314.804 289.358 321.963 289.639 331.813 289.639V287.639C321.97 287.639 314.922 287.357 310.63 286.803L310.374 288.787ZM331.813 289.639C341.697 289.639 350.816 289.074 359.166 287.942L358.898 285.96C350.65 287.078 341.622 287.639 331.813 287.639V289.639ZM358.04 287.08L358.673 291.933L360.657 291.675L360.024 286.822L358.04 287.08ZM359.432 290.831C349.441 293.224 342.536 294.615 338.67 295.03L338.883 297.018C342.893 296.589 349.914 295.167 359.898 292.777L359.432 290.831ZM337.785 295.892C335.948 309.74 335.033 328.147 335.033 351.095H337.033C337.033 328.186 337.947 309.878 339.767 296.155L337.785 295.892ZM335.033 351.095V363.544H337.033V351.095H335.033ZM335.033 363.544C335.033 389.846 335.946 408.283 337.791 418.788L339.761 418.442C337.949 408.128 337.033 389.851 337.033 363.544H335.033ZM338.659 419.608C345.79 420.447 352.495 421.705 358.774 423.379L359.29 421.447C352.909 419.745 346.11 418.471 338.893 417.622L338.659 419.608ZM358.045 422.255L357.201 427.53L359.176 427.846L360.02 422.571L358.045 422.255ZM358.337 426.699C350.832 425.566 343.257 425 335.611 425V427C343.157 427 350.633 427.559 358.039 428.677L358.337 426.699ZM335.611 425C328.141 425 322.059 425.211 317.375 425.637L317.556 427.629C322.155 427.211 328.17 427 335.611 427V425ZM318.465 426.633C318.465 425.266 318.098 423.498 317.426 421.373C316.749 419.232 315.741 416.663 314.409 413.672C311.745 407.689 307.759 399.957 302.46 390.486C291.86 371.54 275.97 345.567 254.796 312.575L253.112 313.655C274.279 346.636 290.144 372.569 300.715 391.462C306.001 400.91 309.954 408.582 312.582 414.485C313.897 417.437 314.873 419.932 315.519 421.976C316.171 424.036 316.465 425.573 316.465 426.633H318.465ZM253.507 312.221L252.663 312.643L253.557 314.431L254.401 314.009L253.507 312.221ZM252.11 313.537V348.985H254.11V313.537H252.11ZM252.11 348.985C252.11 366.94 252.761 381.75 254.068 393.406C255.372 405.036 257.338 413.62 260.02 419.057L261.814 418.173C259.292 413.06 257.354 404.764 256.056 393.184C254.76 381.63 254.11 366.9 254.11 348.985H252.11ZM260.827 419.611C268.509 420.309 276.121 421.636 283.665 423.592L284.167 421.656C276.519 419.673 268.799 418.327 261.008 417.619L260.827 419.611ZM282.92 422.541L282.498 427.605L284.491 427.771L284.913 422.707L282.92 422.541ZM283.602 426.694C273.151 425.564 261.791 425 249.523 425V427C261.731 427 273.018 427.561 283.387 428.682L283.602 426.694ZM249.523 425C237.402 425 227.57 425.563 220.045 426.699L220.343 428.677C227.729 427.562 237.45 427 249.523 427V425ZM221.182 427.53L220.338 422.255L218.363 422.571L219.207 427.846L221.182 427.53ZM219.647 423.368C225.92 421.416 232.618 419.951 239.742 418.973L239.47 416.991C232.246 417.983 225.44 419.471 219.053 421.458L219.647 423.368ZM240.597 418.115C242.154 406.51 242.927 388.308 242.927 363.544H240.927C240.927 388.295 240.153 406.385 238.615 417.849L240.597 418.115ZM242.927 363.544V351.095H240.927V363.544H242.927ZM242.927 351.095C242.927 328.288 242.012 310.091 240.175 296.523L238.193 296.791C240.013 310.231 240.927 328.326 240.927 351.095H242.927ZM239.32 295.666C232.196 294.688 225.498 293.223 219.225 291.271L218.631 293.181C225.018 295.168 231.824 296.656 239.048 297.648L239.32 295.666ZM219.916 292.384L220.76 287.109L218.785 286.793L217.941 292.068L219.916 292.384Z" fill="white" fill-opacity="0.7"/>
</g>
<defs>
<filter id="filter0_f_0_1" x="32" y="0" width="508" height="508" filterUnits="userSpaceOnUse" color-interpolation-filters="sRGB">
<feFlood flood-opacity="0" result="BackgroundImageFix"/>
<feBlend mode="normal" in="SourceGraphic" in2="BackgroundImageFix" result="shape"/>
<feGaussianBlur stdDeviation="2" result="effect1_foregroundBlur_0_1"/>
</filter>
<filter id="filter1_d_0_1" x="0.257004" y="285.474" width="363.408" height="154.223" filterUnits="userSpaceOnUse" color-interpolation-filters="sRGB">
<feFlood flood-opacity="0" result="BackgroundImageFix"/>
<feColorMatrix in="SourceAlpha" type="matrix" values="0 0 0 0 0 0 0 0 0 0 0 0 0 0 0 0 0 0 127 0" result="hardAlpha"/>
<feOffset dy="4"/>
<feGaussianBlur stdDeviation="2"/>
<feComposite in2="hardAlpha" operator="out"/>
<feColorMatrix type="matrix" values="0 0 0 0 0 0 0 0 0 0 0 0 0 0 0 0 0 0 0.25 0"/>
<feBlend mode="normal" in2="BackgroundImageFix" result="effect1_dropShadow_0_1"/>
<feBlend mode="normal" in="SourceGraphic" in2="effect1_dropShadow_0_1" result="shape"/>
</filter>
</defs>
</svg>
